<svg width="173" height="99" viewBox="0 0 173 99" fill="none" xmlns="http://www.w3.org/2000/svg">
<g clip-path="url(#clip0_4_3)">
<mask id="mask0_4_3" style="mask-type:luminance" maskUnits="userSpaceOnUse" x="0" y="0" width="173" height="99">
<path d="M173 0H0V99H173V0Z" fill="white"/>
</mask>
<g mask="url(#mask0_4_3)">
<path d="M64.966 3.99989C66.3775 2.79214 65.5234 0.480286 63.6657 0.480286H42.9499C42.4754 0.480286 42.0164 0.648997 41.6548 0.956278L0.704856 35.7567C0.257707 36.1367 0 36.6939 0 37.2807V59.3764C0 59.9461 0.242976 60.4888 0.667951 60.8682L42.7972 98.4845C43.1637 98.8118 43.6379 98.9927 44.1292 98.9927H63.9543C65.7762 98.9927 66.6493 96.7554 65.309 95.5213L15.2807 49.4594C14.399 48.6475 14.4244 47.2477 15.3351 46.4684L64.966 3.99989Z" fill="#F43F5E"/>
<path d="M76.3873 0.955535C76.7488 0.648718 77.2075 0.480286 77.6816 0.480286H98.7424C100.604 0.480286 101.456 2.80149 100.036 4.00575L50.8517 45.7084C49.934 46.4865 49.9061 47.8928 50.7922 48.7067L101.756 95.5197C103.099 96.753 102.226 98.9927 100.403 98.9927H78.1118C77.6097 98.9927 77.126 98.8038 76.7567 98.4636L23.1546 49.0858C22.2708 48.2717 22.2993 46.8676 23.2154 46.09L76.3873 0.955535Z" fill="#F43F5E"/>
<path d="M86.9239 38.3051C86.9239 37.7528 87.3716 37.3051 87.9239 37.3051H132.539C133.977 37.3051 135.356 37.8697 136.374 38.8751C137.391 39.8807 137.964 41.2444 137.966 42.6671V56.042C137.966 57.466 137.394 58.8315 136.377 59.8385C135.358 60.8454 133.978 61.4113 132.539 61.4113H87.9239C87.3716 61.4113 86.9239 60.9636 86.9239 60.4113V38.3051Z" fill="#3B82F6"/>
<path d="M122.24 0H114.738C114.25 0 113.779 0.178296 113.414 0.501333L90.9752 20.3305C89.595 21.5502 90.4577 23.8292 92.2996 23.8292H118.97C125.788 23.8292 132.325 26.508 137.146 31.2763C141.967 36.0446 144.675 42.5119 144.675 49.2554C144.675 55.9989 141.967 62.4661 137.146 67.2344C132.325 72.0027 125.788 74.6814 118.97 74.6814H94.087C92.2794 74.6814 91.3992 76.8891 92.7109 78.1328L114.143 98.453C114.515 98.8052 115.007 99.0016 115.519 99.0016H123.682C150.919 99.0016 173 77.1596 173 50.2166C173 22.483 150.272 0 122.24 0Z" fill="#3B82F6"/>
</g>
</g>
<defs>
<clipPath id="clip0_4_3">
<rect width="173" height="99" fill="white"/>
</clipPath>
</defs>
</svg>
